<svg xmlns="http://www.w3.org/2000/svg" viewBox="0 0 500 500"><g id="freepik--Screen--inject-232"><g id="freepik--screen--inject-232"><g id="freepik--Window--inject-232"><path d="M138.73,132.41a12.69,12.69,0,0,0-5.75,10V351.06c0,3.67,2.57,5.16,5.75,3.32l98.79-57a12.75,12.75,0,0,0,5.75-10V78.69c0-3.66-2.59-5.15-5.75-3.33Z" style="fill:#455a64"></path><path d="M240.08,75.42c1.48,0,2.36,1.22,2.36,3.27V287.38a12,12,0,0,1-5.33,9.24l-98.8,57a4.36,4.36,0,0,1-2.15.68c-1.47,0-2.35-1.23-2.35-3.28V142.37a11.81,11.81,0,0,1,5.33-9.24l98.8-57a4.43,4.43,0,0,1,2.14-.66m0-.83a5.26,5.26,0,0,0-2.56.77l-98.79,57.05a12.69,12.69,0,0,0-5.75,10V351.06c0,2.6,1.29,4.11,3.18,4.11a5.19,5.19,0,0,0,2.57-.79l98.79-57a12.75,12.75,0,0,0,5.75-10V78.69c0-2.6-1.3-4.1-3.19-4.1Z" style="fill:#BA68C8"></path></g><path d="M152.62,141.18a.28.28,0,0,1,0-.16v-.77l-1.21.7c-.07,0-.1,0-.1-.11v-.28a.66.66,0,0,1,0-.15s0-.09,0-.15l1.29-3.52a.4.4,0,0,1,.06-.13.3.3,0,0,1,.08-.08l.17-.1s.09,0,.11,0,0,.08,0,.17v2.71l.27-.16c.05,0,.08,0,.1,0a.29.29,0,0,1,0,.17v.18a.47.47,0,0,1,0,.19.23.23,0,0,1-.1.12l-.27.15v.78a.47.47,0,0,1,0,.19.28.28,0,0,1-.12.12l-.2.12S152.64,141.2,152.62,141.18Zm0-1.64v-1.93l-.88,2.44Z" style="fill:#fafafa"></path><path d="M154.06,139.88a2.52,2.52,0,0,1-.36-1.58,5,5,0,0,1,.36-2,2.46,2.46,0,0,1,1-1.21,1.54,1.54,0,0,1,.48-.19.58.58,0,0,1,.38.06.08.08,0,0,1,0,.07.34.34,0,0,1,0,.09l-.12.4a.19.19,0,0,1,0,.09h0a.73.73,0,0,0-.62.1,1.73,1.73,0,0,0-.69.84,3.9,3.9,0,0,0-.24,1.47,2,2,0,0,0,.24,1.19q.24.3.66.06a2.86,2.86,0,0,0,.3-.22,1.79,1.79,0,0,0,.23-.26v-1.26l-.5.29c-.05,0-.09,0-.11,0a.29.29,0,0,1,0-.17v-.17a.53.53,0,0,1,0-.2.23.23,0,0,1,.11-.11l.81-.47s.09,0,.12,0a.46.46,0,0,1,0,.2v1.8a.71.71,0,0,1,0,.16.31.31,0,0,1,0,.12,2.52,2.52,0,0,1-1,.94C154.63,140.17,154.3,140.16,154.06,139.88Z" style="fill:#fafafa"></path><path d="M164.27,133.7a1.86,1.86,0,0,1-.7,1.49c-.39.22-.7-.08-.7-.68a1.86,1.86,0,0,1,.7-1.49C164,132.8,164.27,133.1,164.27,133.7Z" style="fill:#fafafa"></path><path d="M163.57,131.25a4.29,4.29,0,0,0-1.64,2.45c-.06.22,0,.43.08.5h0c.13.08.33-.09.41-.37a3,3,0,0,1,1.15-1.73.74.74,0,0,1,1.15.4c.08.19.28.14.41-.1h0a.7.7,0,0,0,.08-.57A1.06,1.06,0,0,0,163.57,131.25Z" style="fill:#fafafa"></path><path d="M163.57,129.52a6.56,6.56,0,0,0-2.51,3.57c-.08.23-.06.47.06.54h0c.13.08.31-.08.4-.34a5.31,5.31,0,0,1,2-2.92,1.36,1.36,0,0,1,2.05.55c.09.17.27.11.4-.12h0a.68.68,0,0,0,.06-.61A1.66,1.66,0,0,0,163.57,129.52Z" style="fill:#fafafa"></path><path d="M181.94,121.48a.17.17,0,0,1,0-.13.42.42,0,0,1,0-.16l1-1.81.08-.12.09-.09.36-.21a.06.06,0,0,1,.09,0,.16.16,0,0,1,0,.11v4.63a.42.42,0,0,1,0,.15.26.26,0,0,1-.09.11l-.38.22a.06.06,0,0,1-.09,0,.16.16,0,0,1,0-.11v-3.54l-.66,1.18a.19.19,0,0,1-.09.09.08.08,0,0,1-.09,0Z" style="fill:#fafafa"></path><path d="M184.3,120.12s0-.07,0-.13a.3.3,0,0,1,0-.16l1-1.8a.57.57,0,0,1,.08-.13.24.24,0,0,1,.08-.09l.36-.21s.07,0,.09,0a.12.12,0,0,1,0,.11v4.63a.34.34,0,0,1,0,.16.18.18,0,0,1-.09.1l-.37.22s-.07,0-.09,0a.12.12,0,0,1,0-.11v-3.54l-.66,1.18a.19.19,0,0,1-.09.09.09.09,0,0,1-.09,0Z" style="fill:#fafafa"></path><path d="M187.38,118.14a.06.06,0,0,1,.09,0,.15.15,0,0,1,0,.12v.7a.34.34,0,0,1,0,.16.18.18,0,0,1-.09.1l-.43.25a.07.07,0,0,1-.09,0,.21.21,0,0,1,0-.12v-.7a.5.5,0,0,1,0-.16.35.35,0,0,1,.09-.11Zm0,2.5s.07,0,.09,0a.12.12,0,0,1,0,.11v.7a.29.29,0,0,1,0,.16.17.17,0,0,1-.09.11L187,122a.06.06,0,0,1-.09,0,.16.16,0,0,1,0-.11v-.7a.41.41,0,0,1,0-.16.35.35,0,0,1,.09-.11Z" style="fill:#fafafa"></path><path d="M189.87,120.3a.08.08,0,0,1-.09,0,.16.16,0,0,1,0-.11v-.87l-1.44.83a.06.06,0,0,1-.09,0,.16.16,0,0,1,0-.11v-.51a.58.58,0,0,1,0-.19c0-.06,0-.13.07-.2l1.42-3.56a.59.59,0,0,1,.19-.29l.36-.21a.08.08,0,0,1,.08,0s0,.06,0,.12v2.86l.4-.23s.07,0,.09,0a.12.12,0,0,1,0,.11v.51a.34.34,0,0,1,0,.16.18.18,0,0,1-.09.1l-.4.24v.86a.32.32,0,0,1,0,.16.24.24,0,0,1-.08.11Zm-.13-1.89v-1.53l-.79,2Z" style="fill:#fafafa"></path><path d="M191.74,114.4a.29.29,0,0,1,0-.16.24.24,0,0,1,.08-.11l1.75-1s.07,0,.09,0a.12.12,0,0,1,0,.11v.51a.32.32,0,0,1,0,.16.2.2,0,0,1-.09.11l-1.3.75-.05,1a1.36,1.36,0,0,1,.24-.24l.21-.13a1.11,1.11,0,0,1,.48-.17.52.52,0,0,1,.39.09.81.81,0,0,1,.25.37,2,2,0,0,1,.09.66,3.61,3.61,0,0,1-.09.84,3,3,0,0,1-.26.69,2.34,2.34,0,0,1-.39.53,2.63,2.63,0,0,1-.47.37,1.43,1.43,0,0,1-.55.2.5.5,0,0,1-.39-.09.63.63,0,0,1-.22-.32,1.41,1.41,0,0,1-.09-.48.41.41,0,0,1,0-.16.27.27,0,0,1,.1-.11l.37-.21a.1.1,0,0,1,.09,0,.19.19,0,0,1,0,.1.41.41,0,0,0,.09.22.26.26,0,0,0,.13.08.37.37,0,0,0,.18,0,.67.67,0,0,0,.21-.1,1,1,0,0,0,.42-.47,1.48,1.48,0,0,0,.17-.7.52.52,0,0,0-.17-.44.38.38,0,0,0-.42,0,1.14,1.14,0,0,0-.22.16l-.14.16a1.25,1.25,0,0,1-.09.12.36.36,0,0,1-.11.1l-.43.25a.08.08,0,0,1-.08,0s0-.06,0-.12Z" style="fill:#fafafa"></path><polygon points="139.24 149.48 139.24 147.99 140.53 147.24 140.53 148.74 139.24 149.48" style="fill:#fafafa"></polygon><polygon points="141.18 148.36 141.18 145.38 142.47 144.63 142.47 147.62 141.18 148.36" style="fill:#fafafa"></polygon><polygon points="143.12 147.24 143.12 142.76 144.41 142.02 144.41 146.5 143.12 147.24" style="fill:#fafafa"></polygon><polygon points="145.06 146.12 145.06 140.15 146.35 139.41 146.35 145.38 145.06 146.12" style="fill:#fafafa"></polygon><path d="M235.87,88.85c-.14-.2-.31-.26-.48-.16l-4.83,2.78a1.83,1.83,0,0,0-.56,1.47v2.71a1.55,1.55,0,0,0,.21.87.5.5,0,0,0,.19.17.28.28,0,0,0,.29,0l4.83-2.78a1.84,1.84,0,0,0,.56-1.46V89.71A1.63,1.63,0,0,0,235.87,88.85Zm-5.53,7.32a.8.8,0,0,1-.08-.4V93.06a1.44,1.44,0,0,1,.43-1.12l4.83-2.78a.17.17,0,0,1,.15,0,.12.12,0,0,1,.06.06.76.76,0,0,1,.08.39v2.72a1.48,1.48,0,0,1-.42,1.12l-4.83,2.77A.15.15,0,0,1,230.34,96.17Z" style="fill:#fafafa"></path><path d="M231.61,91.88v3.21l-.76.44a.1.1,0,0,1-.15-.09V93.06a1.17,1.17,0,0,1,.31-.84Z" style="fill:#fafafa"></path><polygon points="231.96 91.69 232.86 91.16 232.86 94.37 231.96 94.89 231.96 91.69" style="fill:#fafafa"></polygon><polygon points="233.22 90.97 234.12 90.44 234.12 93.66 233.22 94.18 233.22 90.97" style="fill:#fafafa"></polygon><path d="M235.38,89.93v2.31a1.2,1.2,0,0,1-.6,1l-.31.17V90.24l.73-.41A.12.12,0,0,1,235.38,89.93Z" style="fill:#fafafa"></path><path d="M236.26,89.63c.13-.08.24.31.24.86V91a2,2,0,0,1-.25,1.17l-.24.17V89.77Z" style="fill:#fafafa"></path><polygon points="222.66 97.83 227.36 93.66 225.91 99.77 225.23 97.23 222.66 97.83" style="fill:#fafafa"></polygon><path d="M147.9,335.26a1.36,1.36,0,0,1-.68-.18,1.67,1.67,0,0,1-.73-1.53V326a4.37,4.37,0,0,1,2-3.48L172,309a1.5,1.5,0,0,1,2.43,1.4v7.56a4.37,4.37,0,0,1-2,3.48L148.92,335A2.1,2.1,0,0,1,147.9,335.26ZM173,309.49a1.34,1.34,0,0,0-.6.19l-23.46,13.55a3.57,3.57,0,0,0-1.6,2.76v7.56a.7.7,0,0,0,1.18.68L172,320.68a3.57,3.57,0,0,0,1.6-2.76v-7.56a.89.89,0,0,0-.32-.8A.44.44,0,0,0,173,309.49Z" style="fill:#e0e0e0"></path><path d="M154,325v1a1.87,1.87,0,0,0,0,.25.51.51,0,0,0,.09.18.2.2,0,0,0,.15.06.4.4,0,0,0,.23-.07.79.79,0,0,0,.22-.18.66.66,0,0,0,.14-.2,1.13,1.13,0,0,0,.09-.2,1.62,1.62,0,0,0,0-.19.76.76,0,0,1,.05-.16.17.17,0,0,1,.09-.1l.52-.3s.05,0,.06,0,0,0,0,.08a2.43,2.43,0,0,1-.1.64,2.89,2.89,0,0,1-.26.63,3.69,3.69,0,0,1-.4.55,2,2,0,0,1-.48.4,1.09,1.09,0,0,1-.52.17.63.63,0,0,1-.38-.14.77.77,0,0,1-.24-.39,2,2,0,0,1-.1-.58c0-.17,0-.35,0-.54s0-.38,0-.55a3.44,3.44,0,0,1,.09-.7,3,3,0,0,1,.25-.67,2.53,2.53,0,0,1,.38-.58,1.93,1.93,0,0,1,.52-.43,1,1,0,0,1,.48-.16.62.62,0,0,1,.66.42,1.39,1.39,0,0,1,.1.53.23.23,0,0,1,0,.11.17.17,0,0,1-.06.08l-.52.3c-.05,0-.08,0-.09,0a.38.38,0,0,1-.05-.11.74.74,0,0,0,0-.14.22.22,0,0,0-.09-.1.2.2,0,0,0-.14,0,.49.49,0,0,0-.22.08.71.71,0,0,0-.23.19,1,1,0,0,0-.15.24,1.31,1.31,0,0,0-.09.28A2.89,2.89,0,0,0,154,325Z" style="fill:#e0e0e0"></path><path d="M156.18,325.46a1.58,1.58,0,0,1,.21-.78,2.61,2.61,0,0,1,.65-.77l.47-.39a.29.29,0,0,0-.06-.21s-.09,0-.17,0a.36.36,0,0,0-.15.12l-.07.11a.29.29,0,0,1-.07.1l-.07.06-.51.29s0,0-.06,0,0,0,0-.08a1.65,1.65,0,0,1,.08-.34,2.49,2.49,0,0,1,.2-.4,2.55,2.55,0,0,1,.3-.39,1.57,1.57,0,0,1,.38-.3,1.07,1.07,0,0,1,.42-.15.39.39,0,0,1,.29.08.56.56,0,0,1,.18.29,2,2,0,0,1,.05.46V325a.31.31,0,0,1,0,.13s0,.08-.08.09l-.5.29s-.05,0-.07,0a.15.15,0,0,1,0-.1v-.17a2.52,2.52,0,0,1-.24.43,1.3,1.3,0,0,1-.37.32.74.74,0,0,1-.31.1.32.32,0,0,1-.22-.07.53.53,0,0,1-.14-.23A1.25,1.25,0,0,1,156.18,325.46Zm.91-.38a1,1,0,0,0,.17-.14,1.37,1.37,0,0,0,.13-.2,2.25,2.25,0,0,0,.08-.24,1.18,1.18,0,0,0,0-.25l-.37.3a.79.79,0,0,0-.17.2.41.41,0,0,0-.07.23c0,.08,0,.12,0,.13A.21.21,0,0,0,157.09,325.08Z" style="fill:#e0e0e0"></path><path d="M161,323.43a.37.37,0,0,1,0,.14.22.22,0,0,1-.07.09l-.5.29a.08.08,0,0,1-.08,0,.13.13,0,0,1,0-.1v-1.55a.68.68,0,0,0-.08-.37c-.06-.08-.15-.08-.27,0a.62.62,0,0,0-.26.31,1.4,1.4,0,0,0-.08.47v1.55a.35.35,0,0,1,0,.14.24.24,0,0,1-.08.09l-.5.29a0,0,0,0,1-.07,0,.1.1,0,0,1,0-.09V321.8a.25.25,0,0,1,0-.14.22.22,0,0,1,.07-.09l.48-.28a.08.08,0,0,1,.08,0,.13.13,0,0,1,0,.1v.14c0-.06.05-.11.08-.18a.94.94,0,0,1,.12-.18,1.19,1.19,0,0,1,.15-.18.8.8,0,0,1,.21-.15.7.7,0,0,1,.35-.12.35.35,0,0,1,.28.09.72.72,0,0,1,.17.34,2.24,2.24,0,0,1,.07.58Z" style="fill:#e0e0e0"></path><path d="M162.26,321.05a1.55,1.55,0,0,0,0,.22,1.34,1.34,0,0,0,0,.21.37.37,0,0,0,.11.29c.06.06.15.05.25,0a.58.58,0,0,0,.2-.17.84.84,0,0,0,.12-.23.36.36,0,0,1,0-.11.19.19,0,0,1,.07-.08l.52-.3a.06.06,0,0,1,.08,0,.15.15,0,0,1,0,.1,1.81,1.81,0,0,1-.05.32,2.33,2.33,0,0,1-.17.48,2.86,2.86,0,0,1-.32.51,1.84,1.84,0,0,1-.52.43.8.8,0,0,1-.41.14.54.54,0,0,1-.34-.08.62.62,0,0,1-.23-.31,1.56,1.56,0,0,1-.1-.53v-.49a2.67,2.67,0,0,1,.1-.64,2.27,2.27,0,0,1,.23-.58,2.08,2.08,0,0,1,.34-.48,1.85,1.85,0,0,1,.41-.34,1,1,0,0,1,.52-.16.56.56,0,0,1,.32.14.62.62,0,0,1,.17.28,1.14,1.14,0,0,1,.05.26.31.31,0,0,1,0,.13.21.21,0,0,1-.08.1l-.52.3s-.05,0-.07,0a.09.09,0,0,1,0-.06.23.23,0,0,0-.12-.1.33.33,0,0,0-.2.06.69.69,0,0,0-.25.28A1,1,0,0,0,162.26,321.05Z" style="fill:#e0e0e0"></path><path d="M164.84,320.12a.43.43,0,0,0,0,.22.21.21,0,0,0,.08.1.25.25,0,0,0,.12,0l.12-.05a1,1,0,0,0,.19-.15.66.66,0,0,0,.12-.17l.06-.11a.18.18,0,0,1,.07-.05l.52-.3c.06,0,.08,0,.08.08a1,1,0,0,1-.06.26,2,2,0,0,1-.18.41,2.25,2.25,0,0,1-.32.46,1.65,1.65,0,0,1-.48.39,1.06,1.06,0,0,1-.46.16.48.48,0,0,1-.34-.14.79.79,0,0,1-.2-.4,2.44,2.44,0,0,1-.07-.65,3.26,3.26,0,0,1,.07-.7,2.65,2.65,0,0,1,.2-.64,2.81,2.81,0,0,1,.34-.55,1.87,1.87,0,0,1,.46-.39.81.81,0,0,1,.5-.13.51.51,0,0,1,.33.19,1.06,1.06,0,0,1,.19.43,2.53,2.53,0,0,1,.06.56v.17a.25.25,0,0,1,0,.14.22.22,0,0,1-.07.09Zm.36-1.38a.63.63,0,0,0-.25.3,1.27,1.27,0,0,0-.11.4l.72-.41a.55.55,0,0,0-.1-.28C165.4,318.68,165.31,318.68,165.2,318.74Z" style="fill:#e0e0e0"></path><path d="M167.55,319.64a.31.31,0,0,1,0,.13.2.2,0,0,1-.07.1l-.5.28a.06.06,0,0,1-.08,0,.13.13,0,0,1,0-.1v-4a.31.31,0,0,1,0-.13.21.21,0,0,1,.08-.1l.5-.29a.06.06,0,0,1,.07,0,.13.13,0,0,1,0,.1Z" style="fill:#e0e0e0"></path><path d="M202.69,301.36V293.8a4,4,0,0,1,1.8-3.13L228,277.13c1-.58,1.8-.11,1.8,1v7.55a4,4,0,0,1-1.8,3.13L204.49,302.4C203.5,303,202.69,302.51,202.69,301.36Z" style="fill:#BA68C8"></path><path d="M211.84,290q.09,0,.12,0a.27.27,0,0,1,.06.1l.87,3.36a.34.34,0,0,1,0,.09.23.23,0,0,1,0,.11.22.22,0,0,1-.06.07l-.5.29c-.06,0-.09,0-.12,0l0-.08-.11-.45-1.06.62-.11.57a.84.84,0,0,1,0,.12.28.28,0,0,1-.12.12l-.5.29h-.06a.11.11,0,0,1,0-.08.89.89,0,0,1,0-.11l.87-4.36a.88.88,0,0,1,.06-.17.22.22,0,0,1,.12-.13ZM211.2,293l.64-.38-.32-1.28Z" style="fill:#fafafa"></path><path d="M214.63,292.7l-.2.08a.29.29,0,0,1-.16,0l-.1,0-.07-.08v1.3a.25.25,0,0,1,0,.14.22.22,0,0,1-.07.09l-.5.29a.05.05,0,0,1-.08,0s0-.05,0-.09v-4a.35.35,0,0,1,0-.14.18.18,0,0,1,.08-.09l.48-.28a0,0,0,0,1,.07,0,.1.1,0,0,1,0,.09v.14c0-.05,0-.11.07-.17a1.74,1.74,0,0,1,.11-.18,1.14,1.14,0,0,1,.15-.17,1,1,0,0,1,.22-.16.68.68,0,0,1,.34-.11.37.37,0,0,1,.28.09.74.74,0,0,1,.19.33,1.84,1.84,0,0,1,.08.58v.49a2.88,2.88,0,0,1-.08.68,3,3,0,0,1-.19.55,2.19,2.19,0,0,1-.28.42A1.74,1.74,0,0,1,214.63,292.7Zm.18-1.59a1.93,1.93,0,0,0,0-.34.64.64,0,0,0-.09-.32c-.06-.08-.14-.08-.27,0a.47.47,0,0,0-.15.13.78.78,0,0,0-.11.18,1.06,1.06,0,0,0-.06.19.69.69,0,0,0,0,.2,1.34,1.34,0,0,0,0,.21,1.22,1.22,0,0,0,0,.21.38.38,0,0,0,0,.16.34.34,0,0,0,.06.12.24.24,0,0,0,.11.06.26.26,0,0,0,.15,0,.63.63,0,0,0,.27-.31A1.57,1.57,0,0,0,214.81,291.11Z" style="fill:#fafafa"></path><path d="M217.35,291.13a.75.75,0,0,1-.2.08.35.35,0,0,1-.15,0,.2.2,0,0,1-.11-.06l-.07-.07v1.3a.35.35,0,0,1,0,.14.36.36,0,0,1-.08.09l-.5.29a.06.06,0,0,1-.08,0,.12.12,0,0,1,0-.09v-4a.35.35,0,0,1,0-.13.15.15,0,0,1,.08-.09l.48-.28a.06.06,0,0,1,.08,0,.15.15,0,0,1,0,.1v.14l.08-.17a.81.81,0,0,1,.1-.18.8.8,0,0,1,.15-.17,1,1,0,0,1,.22-.16.82.82,0,0,1,.34-.12.4.4,0,0,1,.28.1.74.74,0,0,1,.19.33,3.61,3.61,0,0,1,.08,1.07,2.73,2.73,0,0,1-.08.67,2.53,2.53,0,0,1-.19.55,1.47,1.47,0,0,1-.28.42A1.5,1.5,0,0,1,217.35,291.13Zm.18-1.59a1.93,1.93,0,0,0,0-.34.64.64,0,0,0-.09-.32c-.05-.08-.14-.08-.27,0a.47.47,0,0,0-.15.13.59.59,0,0,0-.1.17,1.59,1.59,0,0,0-.07.2.63.63,0,0,0,0,.19,1.55,1.55,0,0,0,0,.22,1.28,1.28,0,0,0,0,.21.38.38,0,0,0,0,.16.35.35,0,0,0,.07.12.12.12,0,0,0,.1.05.24.24,0,0,0,.15,0,.58.58,0,0,0,.27-.31A1.57,1.57,0,0,0,217.53,289.54Z" style="fill:#fafafa"></path><path d="M219.54,289.64a.35.35,0,0,1,0,.13.24.24,0,0,1-.08.09l-.5.29s-.05,0-.07,0a.15.15,0,0,1,0-.1v-4a.35.35,0,0,1,0-.14.22.22,0,0,1,.07-.09l.5-.29a.06.06,0,0,1,.08,0,.12.12,0,0,1,0,.09Z" style="fill:#fafafa"></path><path d="M221.28,289.81a.56.56,0,0,1,0,.12.2.2,0,0,1-.07.1l-.53.3s0,0-.06,0,0,0,0-.08v-.05l.31-1.27-.81-2.41v0a.5.5,0,0,1,0-.12.19.19,0,0,1,.07-.08l.52-.31s.06,0,.08,0a.2.2,0,0,1,0,.08l.44,1.33.44-1.84a.56.56,0,0,1,0-.12.16.16,0,0,1,.08-.1l.52-.3a.06.06,0,0,1,.07,0,.12.12,0,0,1,0,.09s0,0,0,.05Z" style="fill:#fafafa"></path><path d="M162.26,152.72c5.26-3,9.52-.57,9.52,5.47s-4.27,13.4-9.55,16.43-9.55.58-9.53-5.47S157,155.74,162.26,152.72Z" style="fill:#BA68C8"></path><path d="M181.28,154.83l41.44-23.92c1.11-.65,2-.19,2,1a4.33,4.33,0,0,1-2,3.35l-41.59,24c-1.11.65-2,.17-1.94-1.06A4.57,4.57,0,0,1,181.28,154.83Z" style="fill:#e0e0e0"></path><path d="M181.28,146.08l47.8-27.59c1.12-.65,2-.19,2,1a4.3,4.3,0,0,1-2,3.35l-48,27.68c-1.11.65-2,.17-1.94-1.06A4.57,4.57,0,0,1,181.28,146.08Z" style="fill:#BA68C8"></path><path d="M181.28,146.08l47.8-27.59c1.12-.65,2-.19,2,1a4.3,4.3,0,0,1-2,3.35l-48,27.68c-1.11.65-2,.17-1.94-1.06A4.57,4.57,0,0,1,181.28,146.08Z" style="fill:#BA68C8"></path><path d="M181.28,146.08l47.8-27.59c1.12-.65,2-.19,2,1a4.3,4.3,0,0,1-2,3.35l-48,27.68c-1.11.65-2,.17-1.94-1.06A4.57,4.57,0,0,1,181.28,146.08Z" style="opacity:0.25"></path><path d="M156.23,248l11-6.35c1.11-.65,2-.13,2,1.16l.07,17.16a4.44,4.44,0,0,1-2,3.5l-11.12,6.42c-1.12.64-2,.12-2-1.17V251.47A4.5,4.5,0,0,1,156.23,248Z" style="fill:#BA68C8"></path><path d="M179.06,247.94l32.33-18.63c1.12-.64,2-.19,2,1a4.34,4.34,0,0,1-2,3.36L178.92,252.4c-1.12.64-2,.16-1.95-1.07A4.56,4.56,0,0,1,179.06,247.94Z" style="fill:#e0e0e0"></path><path d="M179.06,239.16l41.44-23.92c1.12-.65,2-.19,2,1a4.3,4.3,0,0,1-2,3.35l-41.58,24c-1.12.65-2,.17-1.95-1.06A4.6,4.6,0,0,1,179.06,239.16Z" style="fill:#BA68C8"></path><path d="M179.06,239.16l41.44-23.92c1.12-.65,2-.19,2,1a4.3,4.3,0,0,1-2,3.35l-41.58,24c-1.12.65-2,.17-1.95-1.06A4.6,4.6,0,0,1,179.06,239.16Z" style="fill:#BA68C8"></path><path d="M179.06,239.16l41.44-23.92c1.12-.65,2-.19,2,1a4.3,4.3,0,0,1-2,3.35l-41.58,24c-1.12.65-2,.17-1.95-1.06A4.6,4.6,0,0,1,179.06,239.16Z" style="opacity:0.25"></path><path d="M156.23,278.61l11-6.36c1.11-.65,2-.13,2,1.15l.07,17.27a4.43,4.43,0,0,1-2,3.5l-11.12,6.42c-1.12.65-2,.12-2-1.16V282.12A4.5,4.5,0,0,1,156.23,278.61Z" style="fill:#BA68C8"></path><path d="M179.06,278.68l32.33-18.63c1.12-.64,2-.18,2,1a4.32,4.32,0,0,1-2,3.35l-32.47,18.71c-1.12.64-2,.17-1.95-1.06A4.56,4.56,0,0,1,179.06,278.68Z" style="fill:#e0e0e0"></path><path d="M179.06,269.91,220.5,246c1.12-.64,2-.18,2,1a4.34,4.34,0,0,1-2,3.36l-41.58,24c-1.12.64-2,.16-1.95-1.07A4.56,4.56,0,0,1,179.06,269.91Z" style="fill:#BA68C8"></path><path d="M179.06,269.91,220.5,246c1.12-.64,2-.18,2,1a4.34,4.34,0,0,1-2,3.36l-41.58,24c-1.12.64-2,.16-1.95-1.07A4.56,4.56,0,0,1,179.06,269.91Z" style="fill:#BA68C8"></path><path d="M179.06,269.91,220.5,246c1.12-.64,2-.18,2,1a4.34,4.34,0,0,1-2,3.36l-41.58,24c-1.12.64-2,.16-1.95-1.07A4.56,4.56,0,0,1,179.06,269.91Z" style="opacity:0.25"></path><path d="M149.35,191.39l32.24-18.61c1-.55,1.73-.16,1.73.88a3.7,3.7,0,0,1-1.73,2.87l-32.24,18.61c-.95.55-1.72.16-1.73-.87A3.74,3.74,0,0,1,149.35,191.39Z" style="fill:#BA68C8"></path><path d="M149.35,191.39l32.24-18.61c1-.55,1.73-.16,1.73.88a3.7,3.7,0,0,1-1.73,2.87l-32.24,18.61c-.95.55-1.72.16-1.73-.87A3.74,3.74,0,0,1,149.35,191.39Z" style="fill:#BA68C8"></path><path d="M149.35,191.39l32.24-18.61c1-.55,1.73-.16,1.73.88a3.7,3.7,0,0,1-1.73,2.87l-32.24,18.61c-.95.55-1.72.16-1.73-.87A3.74,3.74,0,0,1,149.35,191.39Z" style="opacity:0.25"></path><path d="M149.35,207.74l19-10.92c.95-.56,1.73-.16,1.73.87a3.72,3.72,0,0,1-1.73,2.87l-19,10.93c-.95.55-1.72.16-1.73-.88A3.72,3.72,0,0,1,149.35,207.74Z" style="fill:#e0e0e0"></path><path d="M147.62,203.52a.39.39,0,0,1-.34-.2.4.4,0,0,1,.15-.55l84.37-48.71a.4.4,0,0,1,.4.69l-84.38,48.72A.46.46,0,0,1,147.62,203.52Z" style="fill:#BA68C8"></path><path d="M147.62,218.5a.39.39,0,0,1-.34-.2.4.4,0,0,1,.15-.55L231.8,169a.4.4,0,0,1,.4.69l-84.38,48.71A.36.36,0,0,1,147.62,218.5Z" style="fill:#BA68C8"></path><path d="M223.66,165c.81-.47,1.46-.09,1.46.85a3.22,3.22,0,0,1-1.47,2.53c-.82.46-1.47.08-1.47-.85A3.28,3.28,0,0,1,223.66,165Z" style="fill:#e0e0e0"></path><path d="M222.7,169.74a1.44,1.44,0,0,1-.76-.2,1.77,1.77,0,0,1-.79-1.64,5.39,5.39,0,0,1,2.51-4.21l5-2.87a2,2,0,0,1,2-.18,1.76,1.76,0,0,1,.79,1.63,5.35,5.35,0,0,1-2.53,4.21L224,169.36A2.6,2.6,0,0,1,222.7,169.74Zm-1-1.84a1.26,1.26,0,0,0,.52,1.17,1.51,1.51,0,0,0,1.47-.19l4.93-2.87a4.85,4.85,0,0,0,2.25-3.74,1.28,1.28,0,0,0-.51-1.16,1.52,1.52,0,0,0-1.46.19l-5,2.87a4.78,4.78,0,0,0-2.24,3.73Z" style="fill:#e0e0e0"></path><path d="M149.35,222.71l29-16.74c1-.55,1.73-.16,1.73.87a3.68,3.68,0,0,1-1.73,2.87l-29,16.75c-.95.55-1.72.16-1.73-.87A3.74,3.74,0,0,1,149.35,222.71Z" style="fill:#e0e0e0"></path><path d="M147.62,233.47a.4.4,0,0,1-.19-.74L231.8,184a.4.4,0,0,1,.54.15.4.4,0,0,1-.14.55l-84.38,48.71A.46.46,0,0,1,147.62,233.47Z" style="fill:#BA68C8"></path><path d="M222.7,184.71a1.53,1.53,0,0,1-.76-.19,1.78,1.78,0,0,1-.79-1.64,5.39,5.39,0,0,1,2.51-4.21l5-2.87a2,2,0,0,1,2-.19,1.78,1.78,0,0,1,.79,1.64,5.36,5.36,0,0,1-2.53,4.21L224,184.33A2.6,2.6,0,0,1,222.7,184.71Z" style="fill:#BA68C8"></path><path d="M229,176.83c.81-.47,1.47-.09,1.47.85a3.19,3.19,0,0,1-1.48,2.53c-.81.46-1.47.08-1.46-.85A3.24,3.24,0,0,1,229,176.83Z" style="fill:#fafafa"></path><path d="M149.35,237.69l19-10.93c.95-.55,1.73-.16,1.73.88a3.72,3.72,0,0,1-1.73,2.87l-19,10.93c-.95.55-1.72.16-1.73-.88A3.72,3.72,0,0,1,149.35,237.69Z" style="fill:#e0e0e0"></path><path d="M223.66,194.91c.81-.47,1.46-.09,1.46.85a3.21,3.21,0,0,1-1.47,2.52c-.82.47-1.47.09-1.47-.84A3.28,3.28,0,0,1,223.66,194.91Z" style="fill:#e0e0e0"></path><path d="M222.7,199.69a1.54,1.54,0,0,1-.76-.2,1.77,1.77,0,0,1-.79-1.64,5.39,5.39,0,0,1,2.51-4.21l5-2.87a2,2,0,0,1,2-.19,1.79,1.79,0,0,1,.79,1.64,5.36,5.36,0,0,1-2.53,4.21L224,199.3A2.51,2.51,0,0,1,222.7,199.69Zm-1-1.84a1.24,1.24,0,0,0,.52,1.16,1.53,1.53,0,0,0,1.47-.18l4.93-2.88a4.82,4.82,0,0,0,2.25-3.73,1.26,1.26,0,0,0-.51-1.16,1.49,1.49,0,0,0-1.46.19l-5,2.87a4.77,4.77,0,0,0-2.24,3.73Z" style="fill:#e0e0e0"></path></g></g><g id="freepik--character-1--inject-232"><g id="freepik--character--inject-232"><path id="freepik--Arm--inject-232" d="M333.18,185.85c-7.12-.13-9.06,4.28-11.18,10.17-2,5.67-3.82,12.27-5.57,16-5.38,1.73-15.3,4.3-19.37,4.4a3.27,3.27,0,0,1-2.13-.74,18.19,18.19,0,0,0-4.63-2.43c-1.36-.63-1.89-1.37-2.18-1.14a1.62,1.62,0,0,0-.08,2.25,11.42,11.42,0,0,0,2.06,1.9,13.26,13.26,0,0,1-5.9-.51c-3.65-1.38-5.62.25-3.5,4.59.76,1.56,4.1,4.27,11.43,4.4a63.15,63.15,0,0,0,7.82-.11c7.12-.76,14.76-1.71,19.67-2.64a7.78,7.78,0,0,0,5-3.17c1.8-2.35,8.73-18.33,11.4-24.71Z" style="fill:#ffa8a7"></path><g id="freepik--character--inject-232"><path d="M362.13,340a39.52,39.52,0,0,1,.72,6.29c.15,3.82.88,5.17,1,8.31.18,3.58-.41,4.94-1.83,7s-5.2,4-6.88.58-1.53-5.61-1.08-9.14.49-5.67.74-8.45c.23-2.45.52-4.31.52-4.31Z" style="fill:#263238"></path><path d="M350.66,310.13l12.6-.49c0,8.42-1.07,22.46-1.13,30.36,0,1.48.27,11.54-.23,14.61-.75,4.61-6.22,4.1-6.56,1.36s.06-14.5,0-15.71c-.06-5.07-2.7-18.24-4.12-27.3C351.17,312.51,350.73,310.56,350.66,310.13Z" style="fill:#ffa8a7"></path><path d="M333.47,333.68s.65,0,.78.53.24,1.62.56,2.64a15,15,0,0,1,.73,5c-.16,1.18-2.74,3.08-4.55,3.49s-4.3,2.36-5.67,3.79a14.09,14.09,0,0,1-8,3.65c-2.21.11-5.52-.3-6.49-2.68A2.27,2.27,0,0,1,311,348a3.86,3.86,0,0,1,1.77-1.24,40,40,0,0,0,4.38-2.34,30.21,30.21,0,0,0,6-4.69,14.78,14.78,0,0,0,2-2.49c.26-.43.5-.88.72-1.34a9.51,9.51,0,0,1,.59-1.41Z" style="fill:#263238"></path><path d="M333.79,333.74c.09-2.61,1.09-8.07,2.8-23.49l-11.81-.84s1.44,20.09,1.49,22.7-.35,3.65-1.49,5c-.93,1.14-1.95,2.21-3,3.27a36.49,36.49,0,0,1-3.32,3l-2.62,2.1c-.28.22-.59.53-.5.88s.35.4.61.49a6.37,6.37,0,0,0,4.11-.42,21.87,21.87,0,0,0,5.71-3.17c.86-.66,1.58-1.5,2.42-2.17s1.77-1.31,2.61-2C332.2,338,334.47,335.41,333.79,333.74Z" style="fill:#ffa8a7"></path><path d="M352.41,219.23a40.21,40.21,0,0,1,8.27,16.17c2.68,11.68,1.12,45.61,1.12,45.61.22,2.09.44,6,1.52,15.19,1.28,10.88-.36,23.54-.36,23.54s-6.48,1.91-10.7,0c0,0-4.14-22-5.73-32.85-1.38-9.43-5.69-32.86-5.69-32.86l-3.1,30.19s.08,5.1.43,10.09c.44,6.39-2.6,25-2.6,25s-6.14,1.32-10.1,0c0,0-2.7-27.95-3-35.65-.38-9.25.61-27.58,1.83-42.28.37-4.43,2-17,2.67-20.77Z" style="fill:#455a64"></path><path d="M340.84,254l-1.48-8.92a22.2,22.2,0,0,1-10.61-3.2,13.48,13.48,0,0,0,8.92,4.76l1,8-.51,25.61Z" style="fill:#263238"></path><path d="M325.92,210c.14,2.63,1,10.55,1,10.55,10.74,7.27,25.7-1,25.7-1l3.87-15.76s-7.07-8.38-1.81-16.64L346,185.85l-9.8-.13-3,.13c-3.28,2.41-8.32,7.69-9.37,10.39S321.15,204.4,325.92,210Z" style="fill:#BA68C8"></path><path d="M325.92,210c.14,2.63,1,10.55,1,10.55,10.74,7.27,25.7-1,25.7-1l3.87-15.76s-7.07-8.38-1.81-16.64L346,185.85l-9.8-.13-3,.13c-3.28,2.41-8.32,7.69-9.37,10.39S321.15,204.4,325.92,210Z" style="fill:#fff;opacity:0.65"></path><path d="M323.2,183.64h13.73a20,20,0,0,0,20-20h0a16,16,0,0,0-15.95-16h-1.86a16,16,0,0,0-15.95,16Z" style="fill:#263238"></path><path d="M352.25,147.64l-1.09,4.19a2.11,2.11,0,0,0,2.66-1.47A2.29,2.29,0,0,0,352.25,147.64Z" style="fill:#263238"></path><path d="M355.84,151.46l-4.32.15a2.1,2.1,0,0,0,2.17,2.13A2.27,2.27,0,0,0,355.84,151.46Z" style="fill:#263238"></path><path d="M329.46,155.22c-1.79,1.06-4,5.54-3.77,14.95.18,8,2.77,9.93,4.06,10.5s3.8.22,6.23-.18v4.78s-3.36,3.9-3.15,6.1,4.86,2.71,8,.57a20.34,20.34,0,0,0,5.16-5.41V174.14s1.33,1.41,3.69-.2a4.35,4.35,0,0,0,1.11-6.31,3.22,3.22,0,0,0-4.88.58s-3.26-.29-8.43-3.12A16.66,16.66,0,0,1,329.46,155.22Z" style="fill:#ffa8a7"></path><path d="M335.48,168.16a1,1,0,0,0,.95,1.09,1,1,0,1,0-.95-1.09Z" style="fill:#263238"></path><path d="M334.32,174.92l-2.33.74a1.2,1.2,0,0,0,1.51.84A1.28,1.28,0,0,0,334.32,174.92Z" style="fill:#f28f8f"></path><path d="M326.59,165.09l2-1.41a1.18,1.18,0,0,0-1.68-.34A1.29,1.29,0,0,0,326.59,165.09Z" style="fill:#263238"></path><path d="M327.06,167.44a1,1,0,1,0,2,.09,1,1,0,0,0-.95-1.08A1,1,0,0,0,327.06,167.44Z" style="fill:#263238"></path><polygon points="332.62 166.87 332.46 172.9 329.29 171.91 332.62 166.87" style="fill:#f28f8f"></polygon><path d="M336,180.49c2.57-.34,7.84-1.85,8.66-3.94a5.36,5.36,0,0,1-1.85,2.66c-1.57,1.35-6.81,2.87-6.81,2.87Z" style="fill:#f28f8f"></path></g><g id="freepik--magnifying-glass--inject-232"><path d="M279.63,212h0a3.8,3.8,0,0,1-.92-3.74,12,12,0,0,1,7.05-8.24,3.78,3.78,0,0,1,3.83.33h0l62.59,49.53h0c1.33,1,1.94,2.87,1.47,5.36a16.74,16.74,0,0,1-9.85,11.52c-2.39.85-4.34.54-5.53-.62h0Z" style="fill:#BA68C8"></path><path d="M279.63,212h0a3.8,3.8,0,0,1-.92-3.74,12,12,0,0,1,7.05-8.24,3.78,3.78,0,0,1,3.83.33h0l62.59,49.53h0c1.33,1,1.94,2.87,1.47,5.36a16.74,16.74,0,0,1-9.85,11.52c-2.39.85-4.34.54-5.53-.62h0Z" style="opacity:0.15"></path><path d="M285.76,200c3.26-1.15,5.39.67,4.75,4.07a12,12,0,0,1-7,8.24c-3.26,1.15-5.39-.67-4.76-4.07A12,12,0,0,1,285.76,200Z" style="fill:#BA68C8"></path><g style="opacity:0.25"><path d="M285.76,200c3.26-1.15,5.39.67,4.75,4.07a12,12,0,0,1-7,8.24c-3.26,1.15-5.39-.67-4.76-4.07A12,12,0,0,1,285.76,200Z"></path></g><path d="M269.37,197.32a7.25,7.25,0,0,1,4.26-5,2.34,2.34,0,0,1,2.32.2h0l11.68,10.13h0a2.31,2.31,0,0,1,.56,2.26,7.25,7.25,0,0,1-4.26,5,2.33,2.33,0,0,1-2.32-.2l-11.68-10.13h0A2.29,2.29,0,0,1,269.37,197.32Z" style="fill:#37474f"></path><path d="M273.63,192.33a4.71,4.71,0,0,0-.76.35l-.12.07c-.21.13-.42.26-.63.42,0,0,0,0,0,0a7.19,7.19,0,0,0-2.71,4.11,2.29,2.29,0,0,0,.55,2.26l3.91,3.39a24.43,24.43,0,0,0,3.39-3.29l9.7,7.88a6.42,6.42,0,0,0,1.26-2.64,2.31,2.31,0,0,0-.56-2.26h0l-7.85-6.81h0L276,192.53h0A2.34,2.34,0,0,0,273.63,192.33Z" style="fill:#455a64"></path><path d="M289.28,207.23l63.21,51.38a13.21,13.21,0,0,0,1.16-3.35c.46-2.49-.14-4.37-1.48-5.36h0L289.6,200.36a3.8,3.8,0,0,1,.92,3.74A10.08,10.08,0,0,1,289.28,207.23Z" style="fill:#fff;opacity:0.4"></path><path d="M352.18,249.9h0l-4.69-3.72c-1.17.66-2.31,1.4-3.21,1.91-1.3.74-2.22.75-2.18,1.12a1.69,1.69,0,0,0,1.86,1.36,25.73,25.73,0,0,0,3.93-1,46.76,46.76,0,0,1-4.44,4.56c-2.94,2.54-3.21,5,1.69,5.83,3.2.51,5.32-.78,8.54-4.91C354.07,252.67,353.47,250.87,352.18,249.9Z" style="opacity:0.15"></path><path d="M305,128.36c0-.63,0-1.24-.1-1.86s-.07-1.21-.13-1.8c0-.41-.07-.8-.13-1.21-.1-1-.25-2.07-.42-3-.08-.45-.16-.91-.25-1.36s-.17-.84-.26-1.25c-.26-1.14-.54-2.24-.86-3.3-.16-.51-.32-1-.49-1.5a2.25,2.25,0,0,1-.08-.24c-.18-.49-.35-1-.53-1.42s-.43-1.08-.68-1.59-.33-.74-.53-1.11a6,6,0,0,0-.4-.8c-.16-.32-.32-.65-.51-.95a.74.74,0,0,0-.13-.21c-.15-.28-.32-.56-.48-.83s-.23-.35-.34-.53a27.74,27.74,0,0,0-2.64-3.51c-.17-.18-.34-.37-.49-.55a5.7,5.7,0,0,0-.42-.43c-.16-.18-.35-.35-.53-.54A20.93,20.93,0,0,0,293,98.9c-.27-.22-.54-.44-.82-.64s-.55-.41-.84-.61a16,16,0,0,0-1.37-.89l-.37-.23-.07-.06h0l-8.58-5h0l-.12-.08A27.27,27.27,0,0,0,267.1,87.9c-7.12,0-15.16,2.33-23.67,7.24-29.24,16.89-53,58-53,91.73,0,16.85,5.9,28.7,15.42,34.25l.09,0v0l8.59,5s0,0,0,0l.09.06v0l.13.07.13.07c.42.24.83.46,1.26.66s1.06.49,1.6.7a12.64,12.64,0,0,0,1.45.54,6.21,6.21,0,0,0,.78.23,4.89,4.89,0,0,0,.85.25c.29.09.56.16.85.22a4.84,4.84,0,0,0,.64.13c.37.07.76.16,1.15.2a.75.75,0,0,0,.26,0c.46.07.92.14,1.38.18,7.88.83,17.06-1.39,26.87-7.06,29.26-16.88,53-58,53-91.73C305,130,305,129.16,305,128.36Zm-96.51,79.69a51.87,51.87,0,0,1-1.79-13.86c0-32,23.42-72.57,51.14-88.58a49.56,49.56,0,0,1,13-5.36,28.25,28.25,0,0,1,6.68-.85,21.27,21.27,0,0,1,3.38.26l.09,0c5.68,6.71,6.51,17.46,6.51,23.21,0,32-23.39,72.57-51.12,88.57-7.05,4.07-13.84,6.22-19.65,6.22a13.68,13.68,0,0,1-3.58-.46h0A25.4,25.4,0,0,1,208.45,208.05Z" style="fill:#BA68C8"></path><path d="M305,128.36c0-.63,0-1.24-.1-1.86s-.07-1.21-.13-1.8c0-.41-.07-.8-.13-1.21-.1-1-.25-2.07-.42-3-.08-.45-.16-.91-.25-1.36s-.17-.84-.26-1.25c-.26-1.14-.54-2.24-.86-3.3-.16-.51-.32-1-.49-1.5a2.25,2.25,0,0,1-.08-.24c-.18-.49-.35-1-.53-1.42s-.43-1.08-.68-1.59-.33-.74-.53-1.11a6,6,0,0,0-.4-.8c-.16-.32-.32-.65-.51-.95a.74.74,0,0,0-.13-.21c-.15-.28-.32-.56-.48-.83s-.23-.35-.34-.53a27.74,27.74,0,0,0-2.64-3.51c-.17-.18-.34-.37-.49-.55a5.7,5.7,0,0,0-.42-.43c-.16-.18-.35-.35-.53-.54A20.93,20.93,0,0,0,293,98.9c-.27-.22-.54-.44-.82-.64s-.55-.41-.84-.61a16,16,0,0,0-1.37-.89l-.37-.23-.07-.06h0l-8.58-5h0l-.12-.08A27.27,27.27,0,0,0,267.1,87.9c-7.12,0-15.16,2.33-23.67,7.24-29.24,16.89-53,58-53,91.73,0,16.85,5.9,28.7,15.42,34.25l.09,0v0l8.59,5s0,0,0,0l.09.06v0l.13.07.13.07c.42.24.83.46,1.26.66s1.06.49,1.6.7a12.64,12.64,0,0,0,1.45.54,6.21,6.21,0,0,0,.78.23,4.89,4.89,0,0,0,.85.25c.29.09.56.16.85.22a4.84,4.84,0,0,0,.64.13c.37.07.76.16,1.15.2a.75.75,0,0,0,.26,0c.46.07.92.14,1.38.18,7.88.83,17.06-1.39,26.87-7.06,29.26-16.88,53-58,53-91.73C305,130,305,129.16,305,128.36Zm-96.51,79.69a51.87,51.87,0,0,1-1.79-13.86c0-32,23.42-72.57,51.14-88.58a49.56,49.56,0,0,1,13-5.36,28.25,28.25,0,0,1,6.68-.85,21.27,21.27,0,0,1,3.38.26l.09,0c5.68,6.71,6.51,17.46,6.51,23.21,0,32-23.39,72.57-51.12,88.57-7.05,4.07-13.84,6.22-19.65,6.22a13.68,13.68,0,0,1-3.58-.46h0A25.4,25.4,0,0,1,208.45,208.05Z" style="fill:#fff;opacity:0.6000000000000001"></path><path d="M297.39,128.5c0,17-6.61,36.41-17,53.28-.48.81-1,1.59-1.49,2.38s-.87,1.36-1.33,2c-1,1.44-2,2.87-3,4.26-.48.67-1,1.33-1.48,2s-1.1,1.43-1.66,2.13c-1.06,1.34-2.16,2.65-3.28,3.93-.73.85-1.49,1.68-2.25,2.49a85.88,85.88,0,0,1-19.69,16.09c-1.32.77-2.63,1.46-3.93,2.09a39.36,39.36,0,0,1-13.48,4c-.76.07-1.51.1-2.23.1-.38,0-.75,0-1.12,0h0a17.33,17.33,0,0,1-2.1-.22c-.35-.05-.68-.1-1-.18s-.64-.13-1-.23a15.51,15.51,0,0,1-8.31-5.38,13.67,13.67,0,0,0,3.57.45c5.82,0,12.6-2.14,19.66-6.21,27.73-16,51.12-56.57,51.12-88.57,0-5.75-.83-16.5-6.51-23.21l-.09,0c7.23,1.15,11.34,6.07,13.66,11.75a34,34,0,0,1,1.58,5c0,.09,0,.18.06.28.07.3.15.61.2.92s.12.6.18.89a1.57,1.57,0,0,1,0,.23c.06.33.12.64.17,1,.18,1.18.33,2.34.43,3.45,0,.32.05.63.07.93s0,.47,0,.69,0,.2,0,.29c0,.25,0,.49,0,.73a1.41,1.41,0,0,1,0,.21l0,.9C297.39,127.43,297.39,128,297.39,128.5Z" style="fill:#BA68C8"></path><path d="M222,220.57a28.81,28.81,0,0,0,6.68-.84,49.75,49.75,0,0,0,13-5.37c27.72-16,51.13-56.57,51.13-88.58A51.85,51.85,0,0,0,291,111.92c-1.25-4.28-3.32-8.46-6.75-11.34l-.33-.12c-.3-.11-.61-.21-.92-.3l-.55-.15c-.31-.08-.64-.15-1-.21l-.57-.12h-.06l.06,0c5.68,6.71,6.51,17.46,6.51,23.21,0,32-23.39,72.57-51.12,88.57-7.06,4.07-13.84,6.21-19.66,6.21a13.67,13.67,0,0,1-3.57-.45l.06.07a17.18,17.18,0,0,0,2.08,2.1A19,19,0,0,0,222,220.57Z" style="fill:#fff;opacity:0.6000000000000001"></path><path d="M289.58,96.53l-.08-.06h0l-8.58-5h0l-.12-.08A27.25,27.25,0,0,0,267.1,87.9c-7.12,0-15.16,2.33-23.67,7.24-16.21,9.36-30.72,26.15-40.43,45l.07,0-.07,0c-7.8,15.15-12.53,31.66-12.53,46.72,0,16.82,5.89,28.66,15.42,34.23l8,4.67c-9.18-5.7-14.78-17.39-14.78-33.86,0-15,5.11-31.19,12.85-46.26,9.74-18.58,24.14-35.4,40.12-45.48,14.51-9.14,28.29-9.27,37.91-3.42Z" style="fill:#fff;opacity:0.4"></path></g><path id="freepik--arm--inject-232" d="M371.63,224.43c-.72-6.64-5.69-21.65-6.93-27.08-1.42-6.2-4-9.42-10-10.18-3,.75-4.46,10.56-.52,17,1.42,4.56,7.12,19.18,7.12,19.18-.33,1.13-6.7,15.38-9.07,19a3.11,3.11,0,0,1-1.82,1.31c-2,.55-4.48,2.29-6.14,3.23-1.3.74-2.22.75-2.19,1.12a1.7,1.7,0,0,0,1.87,1.36,26,26,0,0,0,3.93-1,46.16,46.16,0,0,1-4.45,4.56c-2.94,2.55-3.21,5,1.7,5.83,3.7.59,6-1.22,10.17-7.12,1.21-1.7,2.65-4.3,4.12-6.5,3.72-5.55,5.89-7.76,8-11.35C370.77,228.17,371.91,227,371.63,224.43Z" style="fill:#ffa8a7"></path></g></g></svg>